<?xml version="1.0" encoding="UTF-8" standalone="no"?>
<svg
   xmlns:dc="http://purl.org/dc/elements/1.1/"
   xmlns:cc="http://creativecommons.org/ns#"
   xmlns:rdf="http://www.w3.org/1999/02/22-rdf-syntax-ns#"
   xmlns:svg="http://www.w3.org/2000/svg"
   xmlns="http://www.w3.org/2000/svg"
   xmlns:sodipodi="http://sodipodi.sourceforge.net/DTD/sodipodi-0.dtd"
   xmlns:inkscape="http://www.inkscape.org/namespaces/inkscape"
   version="1.1"
   id="Layer_1"
   x="0px"
   y="0px"
   width="100px"
   height="100px"
   viewBox="5.0 -10.0 100.0 135.0"
   enable-background="new 0 0 100 100"
   xml:space="preserve"
   inkscape:version="0.48.5 r10040"
   sodipodi:docname="noun_54774_cc.svg"><metadata
     id="metadata3017"><rdf:RDF><cc:Work
         rdf:about=""><dc:format>image/svg+xml</dc:format><dc:type
           rdf:resource="http://purl.org/dc/dcmitype/StillImage" /><dc:title></dc:title></cc:Work></rdf:RDF></metadata><defs
     id="defs3015" /><sodipodi:namedview
     pagecolor="#ffffff"
     bordercolor="#666666"
     borderopacity="1"
     objecttolerance="10"
     gridtolerance="10"
     guidetolerance="10"
     inkscape:pageopacity="0"
     inkscape:pageshadow="2"
     inkscape:window-width="640"
     inkscape:window-height="480"
     id="namedview3013"
     showgrid="false"
     inkscape:zoom="2.36"
     inkscape:cx="50"
     inkscape:cy="50"
     inkscape:window-x="53"
     inkscape:window-y="24"
     inkscape:window-maximized="0"
     inkscape:current-layer="Layer_1" /><path
     d="M84.2,50.5c-3.9,0-7.3,2.1-9.2,5.2c0-0.1,0-0.2,0-0.3c0-9.2-7.5-16.6-16.6-16.6s-16.6,7.5-16.6,16.6c0,0.8,0.1,1.7,0.2,2.5  c-1.5-1.6-3.7-2.6-6.1-2.6c-3.8,0-7,2.5-8.1,6H95C95,55.3,90.2,50.5,84.2,50.5z"
     id="path3005"
     style="fill:#ffffff" /><path
     d="M33.9,47.1c-1.2,0-2.2,0.5-3,1.3C31,48,31,47.6,31,47.2c0-4.5-3.6-8.1-8.1-8.1c-4.5,0-8.1,3.6-8.1,8.1c0,0,0,0.1,0,0.1  c-0.9-1.5-2.6-2.6-4.5-2.6C7.4,44.7,5,47.1,5,50h32.9C37.4,48.3,35.8,47.1,33.9,47.1z"
     id="path3007"
     style="fill:#ffffff" /><text
     x="0.0"
     y="117.5"
     font-size="5.0"
     font-weight="bold"
     font-family="Helvetica Neue, Helvetica, Arial-Unicode, Arial, Sans-serif"
     fill="#000000"
     id="text3009"
     style="fill:#ffffff">Created by Yair Cohen</text>
<text
     x="0.0"
     y="122.5"
     font-size="5.0"
     font-weight="bold"
     font-family="Helvetica Neue, Helvetica, Arial-Unicode, Arial, Sans-serif"
     fill="#000000"
     id="text3011"
     style="fill:#ffffff">from the Noun Project</text>
</svg>