<?xml version="1.0" encoding="UTF-8" standalone="no"?>
<svg
   xmlns:dc="http://purl.org/dc/elements/1.1/"
   xmlns:cc="http://creativecommons.org/ns#"
   xmlns:rdf="http://www.w3.org/1999/02/22-rdf-syntax-ns#"
   xmlns:svg="http://www.w3.org/2000/svg"
   xmlns="http://www.w3.org/2000/svg"
   xmlns:sodipodi="http://sodipodi.sourceforge.net/DTD/sodipodi-0.dtd"
   xmlns:inkscape="http://www.inkscape.org/namespaces/inkscape"
   version="1.0"
   id="Layer_1"
   x="0px"
   y="0px"
   width="100px"
   height="82.922px"
   viewBox="5.0 -8.2922 100.0 111.9447"
   enable-background="new 0 0 100 82.922"
   xml:space="preserve"
   inkscape:version="0.48.5 r10040"
   sodipodi:docname="Rain.svg"><metadata
     id="metadata27"><rdf:RDF><cc:Work
         rdf:about=""><dc:format>image/svg+xml</dc:format><dc:type
           rdf:resource="http://purl.org/dc/dcmitype/StillImage" /><dc:title></dc:title></cc:Work></rdf:RDF></metadata><defs
     id="defs25" /><sodipodi:namedview
     pagecolor="#ffffff"
     bordercolor="#666666"
     borderopacity="1"
     objecttolerance="10"
     gridtolerance="10"
     guidetolerance="10"
     inkscape:pageopacity="0"
     inkscape:pageshadow="2"
     inkscape:window-width="640"
     inkscape:window-height="480"
     id="namedview23"
     showgrid="false"
     inkscape:zoom="2.8460482"
     inkscape:cx="50"
     inkscape:cy="41.460999"
     inkscape:window-x="63"
     inkscape:window-y="34"
     inkscape:window-maximized="0"
     inkscape:current-layer="Layer_1" /><g
     id="g3"
     style="fill:#ffffff"><path
       d="M77.958,55.156H11.281C5.061,55.156,0,50.095,0,43.873c0-5.278,3.642-9.722,8.545-10.945   c2.189-5.471,7.248-9.386,13.149-10.09C22.315,10.14,32.841,0,45.693,0c9.415,0,17.821,5.537,21.721,13.758   c3.205-1.752,6.812-2.685,10.544-2.685C90.111,11.073,100,20.96,100,33.115C100,45.266,90.111,55.156,77.958,55.156L77.958,55.156z    M11.209,40.371c-1.898,0.042-3.431,1.598-3.431,3.502c0,1.93,1.571,3.501,3.502,3.501h66.677c7.865,0,14.26-6.397,14.26-14.259   c0-7.862-6.395-14.26-14.26-14.26c-3.684,0-7.18,1.405-9.846,3.951l-5.098,4.871l-1.404-6.906   c-1.526-7.526-8.223-12.988-15.917-12.988c-8.958,0-16.247,7.286-16.247,16.244c0,0.728,0.054,1.482,0.157,2.249l0.731,5.284   l-5.257-0.923c-0.496-0.086-0.992-0.131-1.473-0.131c-4.001,0-7.479,2.842-8.266,6.757l-0.65,3.229l-3.291-0.106   C11.334,40.38,11.272,40.377,11.209,40.371L11.209,40.371z"
       id="path5"
       style="fill:#ffffff" /></g><path
     d="M29.467,63.657L29.467,63.657L29.467,63.657L29.467,63.657L29.467,63.657L29.467,63.657L29.467,63.657L29.467,63.657  L29.467,63.657L29.467,63.657L29.467,63.657L29.467,63.657L29.467,63.657L29.467,63.657L29.467,63.657L29.467,63.657L29.467,63.657  L29.467,63.657L29.467,63.657L29.467,63.657z M29.467,63.657L29.467,63.657L29.467,63.657L29.467,63.657L29.467,63.657  L29.467,63.657L29.467,63.657L29.467,63.657L29.467,63.657L29.467,63.657L29.467,63.657z M29.467,63.657L29.467,63.657  L29.467,63.657L29.467,63.657L29.467,63.657L29.467,63.657L29.467,63.657z M29.467,63.657L29.467,63.657L29.467,63.657  L29.467,63.657L29.467,63.657z M29.467,63.657L29.467,63.657L29.467,63.657L29.467,63.657L29.467,63.657z"
     id="path7" /><path
     d="M29.467,63.657c-1.325,5.062-0.567,7.573-0.936,13.012c-0.356,5.271-5.729,7.675-9.689,5.39  c-3.962-2.287-4.562-8.14-0.175-11.086C23.191,67.938,25.74,67.337,29.467,63.657z"
     id="path9"
     style="fill:#ffffff" /><path
     d="M52.744,63.657L52.744,63.657L52.744,63.657L52.744,63.657L52.744,63.657L52.744,63.657L52.744,63.657L52.744,63.657  L52.744,63.657L52.744,63.657L52.744,63.657L52.744,63.657L52.744,63.657L52.744,63.657L52.744,63.657L52.744,63.657L52.744,63.657  L52.744,63.657L52.744,63.657L52.744,63.657z M52.744,63.657L52.744,63.657L52.744,63.657L52.744,63.657L52.744,63.657  L52.744,63.657L52.744,63.657L52.744,63.657L52.744,63.657L52.744,63.657L52.744,63.657z M52.744,63.657L52.744,63.657  L52.744,63.657L52.744,63.657L52.744,63.657L52.744,63.657L52.744,63.657z M52.744,63.657L52.744,63.657L52.744,63.657  L52.744,63.657L52.744,63.657z M52.744,63.657L52.744,63.657L52.744,63.657L52.744,63.657L52.744,63.657z"
     id="path11" /><path
     d="M56.629,63.657c-1.324,5.062-0.566,7.573-0.936,13.012c-0.355,5.271-5.729,7.675-9.688,5.39  c-3.962-2.287-4.268-8.14,0.119-11.086C50.65,67.938,52.902,67.337,56.629,63.657z"
     id="path13"
     style="fill:#ffffff" /><path
     d="M77.456,63.657L77.456,63.657L77.456,63.657L77.456,63.657L77.456,63.657L77.456,63.657L77.456,63.657L77.456,63.657  L77.456,63.657L77.456,63.657L77.456,63.657L77.456,63.657L77.456,63.657L77.456,63.657L77.456,63.657L77.456,63.657L77.456,63.657  L77.456,63.657L77.456,63.657L77.456,63.657z M77.456,63.657L77.456,63.657L77.456,63.657L77.456,63.657L77.456,63.657  L77.456,63.657L77.456,63.657L77.456,63.657L77.456,63.657L77.456,63.657L77.456,63.657z M77.456,63.657L77.456,63.657  L77.456,63.657L77.456,63.657L77.456,63.657L77.456,63.657L77.456,63.657z M77.456,63.657L77.456,63.657L77.456,63.657  L77.456,63.657L77.456,63.657z M77.456,63.657L77.456,63.657L77.456,63.657L77.456,63.657L77.456,63.657z"
     id="path15" /><path
     d="M84.383,63.657c-1.324,5.062-0.566,7.573-0.936,13.012c-0.356,5.271-5.729,7.675-9.688,5.39  c-3.963-2.287-4.562-8.14-0.176-11.086C78.105,67.938,80.654,67.337,84.383,63.657z"
     id="path17"
     style="fill:#ffffff" /><text
     x="0.0"
     y="97.43335"
     font-size="4.1461"
     font-weight="bold"
     font-family="Helvetica Neue, Helvetica, Arial-Unicode, Arial, Sans-serif"
     fill="#000000"
     id="text19"
     style="fill:#ffffff">Created by Edward Boatman</text>
<text
     x="0.0"
     y="101.57945"
     font-size="4.1461"
     font-weight="bold"
     font-family="Helvetica Neue, Helvetica, Arial-Unicode, Arial, Sans-serif"
     fill="#000000"
     id="text21"
     style="fill:#ffffff">from the Noun Project</text>
</svg>